<svg xmlns="http://www.w3.org/2000/svg" width="124.308" height="34.38" viewBox="0 0 124.308 34.38"><defs><style>.a{fill:#222;}</style></defs><path class="a" d="M19.044-2.628A12.108,12.108,0,0,1,15.408-.342a11.63,11.63,0,0,1-4.176.7A9.92,9.92,0,0,1,7.4-.378,9.786,9.786,0,0,1,4.284-2.412,9.37,9.37,0,0,1,2.2-5.472a9.494,9.494,0,0,1-.756-3.78,10,10,0,0,1,.72-3.816,9.631,9.631,0,0,1,1.962-3.06,8.906,8.906,0,0,1,2.97-2.034A9.341,9.341,0,0,1,10.8-18.9a9.047,9.047,0,0,1,3.69.738,8.654,8.654,0,0,1,2.88,2.034,9.337,9.337,0,0,1,1.89,3.114,11.211,11.211,0,0,1,.684,3.978v1.26H7.164a4.655,4.655,0,0,0,1.584,2.52,4.246,4.246,0,0,0,2.772.972,5.442,5.442,0,0,0,2.106-.4,3.9,3.9,0,0,0,1.566-1.152Zm-8.28-11.736a3.27,3.27,0,0,0-2.3.864,4.6,4.6,0,0,0-1.3,2.412h7.38a4.446,4.446,0,0,0-1.368-2.394A3.54,3.54,0,0,0,10.764-14.364ZM28.4.288A6.767,6.767,0,0,1,23.8-1.278,5.119,5.119,0,0,1,22-5.328,4.677,4.677,0,0,1,23.9-9.306a8.76,8.76,0,0,1,5.328-1.422,11,11,0,0,1,2.052.2,13.4,13.4,0,0,1,2.268.666v-1.512a2.356,2.356,0,0,0-.918-2.016,4.589,4.589,0,0,0-2.754-.684,10.054,10.054,0,0,0-2.322.306,18.9,18.9,0,0,0-2.9.99l-2.016-4.068a25.315,25.315,0,0,1,4.374-1.512,17.82,17.82,0,0,1,4.158-.5,8.928,8.928,0,0,1,5.994,1.836,6.414,6.414,0,0,1,2.142,5.148V0h-5.76V-1.62A8.506,8.506,0,0,1,31.1-.162,7.772,7.772,0,0,1,28.4.288ZM27.36-5.436a1.554,1.554,0,0,0,.756,1.386,3.84,3.84,0,0,0,2.088.486A6.519,6.519,0,0,0,31.95-3.8a6.139,6.139,0,0,0,1.6-.7V-6.876q-.792-.18-1.6-.288a12.111,12.111,0,0,0-1.6-.108,4.311,4.311,0,0,0-2.214.468A1.5,1.5,0,0,0,27.36-5.436Zm17.532-.288v-8.352h-3.6v-4.5h3.6v-5.148l5.832-1.188v6.336h4.968v4.5H50.724v7.2a2.246,2.246,0,0,0,.558,1.728,2.808,2.808,0,0,0,1.89.5,7.119,7.119,0,0,0,1.008-.072,10.523,10.523,0,0,0,1.368-.324V-.324A12.053,12.053,0,0,1,53.6.09a14.91,14.91,0,0,1-2.052.162A7.236,7.236,0,0,1,46.584-1.26,5.677,5.677,0,0,1,44.892-5.724ZM57.06-1.908,59.616-5.8a20.508,20.508,0,0,0,3.312,1.458,8.933,8.933,0,0,0,2.664.414,3.9,3.9,0,0,0,1.944-.414,1.239,1.239,0,0,0,.72-1.1,1.042,1.042,0,0,0-.414-.864,2.909,2.909,0,0,0-1.314-.468l-3.564-.648a7.682,7.682,0,0,1-4.086-1.872,4.741,4.741,0,0,1-1.386-3.528,5.356,5.356,0,0,1,2.07-4.464,9.038,9.038,0,0,1,5.706-1.62,14.082,14.082,0,0,1,3.852.54,16.129,16.129,0,0,1,3.708,1.584l-2.664,3.708a13.481,13.481,0,0,0-2.718-1.188,9.008,9.008,0,0,0-2.61-.4,3.3,3.3,0,0,0-1.638.342,1.056,1.056,0,0,0-.594.954.983.983,0,0,0,.414.864,3.946,3.946,0,0,0,1.494.468L68-11.376a7.96,7.96,0,0,1,4.176,1.89,4.506,4.506,0,0,1,1.4,3.474,5.526,5.526,0,0,1-.594,2.538,5.982,5.982,0,0,1-1.674,2.016A8.324,8.324,0,0,1,68.76-.126,10.069,10.069,0,0,1,65.592.36a18.534,18.534,0,0,1-4.716-.576A12.057,12.057,0,0,1,57.06-1.908ZM78.948-6.444a3.038,3.038,0,0,1,2.286,1.008,3.386,3.386,0,0,1,.954,2.412,3.386,3.386,0,0,1-.954,2.412A3.038,3.038,0,0,1,78.948.4a3.094,3.094,0,0,1-2.3-1.008,3.353,3.353,0,0,1-.972-2.412,3.353,3.353,0,0,1,.972-2.412A3.094,3.094,0,0,1,78.948-6.444ZM85.428,7.74V-18.576h5.76v2.592a6.492,6.492,0,0,1,2.376-1.962,6.91,6.91,0,0,1,3.132-.738,7.211,7.211,0,0,1,3.2.738,8.077,8.077,0,0,1,2.61,2.016,9.894,9.894,0,0,1,1.746,3.006,10.371,10.371,0,0,1,.648,3.672,9.979,9.979,0,0,1-.666,3.654,9.243,9.243,0,0,1-1.836,2.97,8.779,8.779,0,0,1-2.754,2,7.915,7.915,0,0,1-3.384.738A7.025,7.025,0,0,1,93.456-.45a5.98,5.98,0,0,1-2.2-1.6V7.74Zm9.324-21.6a4.8,4.8,0,0,0-1.944.378,4.526,4.526,0,0,0-1.548,1.134v6.192a5.155,5.155,0,0,0,1.584,1.08,4.685,4.685,0,0,0,1.908.4A4.2,4.2,0,0,0,97.92-5.994a4.57,4.57,0,0,0,1.26-3.294A4.49,4.49,0,0,0,97.9-12.546,4.221,4.221,0,0,0,94.752-13.86ZM107.892,0V-25.74l5.832-.9v11.088a7.614,7.614,0,0,1,2.574-2.466,6.569,6.569,0,0,1,3.294-.846,5.9,5.9,0,0,1,4.428,1.782,6.271,6.271,0,0,1,1.728,4.554V0h-5.832V-10.836a3.631,3.631,0,0,0-.846-2.5,2.859,2.859,0,0,0-2.25-.954,3.844,3.844,0,0,0-1.71.378,3.955,3.955,0,0,0-1.386,1.17V0Z" transform="translate(-1.44 26.64)"/></svg>