<svg width="162" height="21" viewBox="0 0 162 21" fill="none" xmlns="http://www.w3.org/2000/svg">
<g clip-path="url(#clip0)">
<path d="M9.74054 15.4805C10.5303 15.4866 11.3084 15.2899 12.0003 14.9091C12.7428 14.4842 13.3886 13.9092 13.8964 13.2208L16.8315 16C15.9864 17.0775 14.8993 17.9406 13.6583 18.5195C12.3921 19.1481 10.9983 19.477 9.5847 19.4805C8.28651 19.4898 6.99927 19.2426 5.79682 18.7532C4.66391 18.2989 3.63027 17.6285 2.75353 16.7792C1.89507 15.9336 1.21113 14.9275 0.740543 13.8182C0.242359 12.6529 -0.0096627 11.3972 0.00028332 10.1299C-0.00869371 8.85846 0.243253 7.59873 0.740543 6.42857C1.21034 5.3118 1.89923 4.30054 2.76652 3.45455C3.64493 2.60949 4.6763 1.93953 5.80548 1.48052C7.0045 0.989798 8.28919 0.742575 9.5847 0.753248C11.0335 0.751933 12.4636 1.08059 13.7665 1.71429C15.0266 2.29578 16.124 3.17899 16.9613 4.28571L13.9483 7.14286C13.4242 6.4046 12.7463 5.78873 11.9613 5.33766C11.2335 4.93243 10.4134 4.72216 9.58037 4.72727C8.90001 4.72099 8.22642 4.86279 7.60634 5.14286C7.01408 5.41158 6.48133 5.79569 6.03924 6.27273C5.58431 6.77083 5.23134 7.35323 5.00028 7.98701C4.74584 8.67255 4.61822 9.39866 4.62366 10.1299C4.61746 10.8581 4.74967 11.5809 5.01327 12.2597C5.25817 12.8927 5.626 13.4709 6.09552 13.961C6.55622 14.4385 7.10831 14.8183 7.7189 15.0779C8.35809 15.3492 9.0462 15.4862 9.74054 15.4805ZM18.1821 12.5455C18.1737 11.6013 18.3548 10.6651 18.7146 9.79221C19.052 8.96983 19.5511 8.2235 20.1821 7.5974C20.8207 6.97267 21.575 6.47859 22.4029 6.14286C23.2806 5.78386 24.2209 5.60287 25.1691 5.61039C26.1215 5.60363 27.0659 5.78457 27.9483 6.14286C28.7812 6.47632 29.5403 6.97058 30.1821 7.5974C30.8131 8.2235 31.3122 8.96983 31.6496 9.79221C32.0094 10.6651 32.1905 11.6013 32.1821 12.5455C32.1918 13.4905 32.0076 14.4276 31.641 15.2987C31.2938 16.1188 30.7894 16.863 30.1561 17.4892C29.5179 18.1154 28.7635 18.611 27.9353 18.9481C27.0577 19.307 26.1174 19.488 25.1691 19.4805C24.2209 19.488 23.2806 19.307 22.4029 18.9481C21.5727 18.6109 20.8178 18.1121 20.1821 17.4805C19.5527 16.8481 19.054 16.0979 18.7146 15.2727C18.3565 14.4084 18.1754 13.481 18.1821 12.5455ZM25.1691 15.9221C25.5665 15.9318 25.961 15.8516 26.3231 15.6874C26.6852 15.5232 27.0054 15.2794 27.26 14.974C27.8227 14.293 28.1141 13.4281 28.0782 12.5455C28.1111 11.6553 27.8205 10.7833 27.26 10.0909C27.0095 9.77917 26.6906 9.52919 26.328 9.3603C25.9655 9.19142 25.569 9.10813 25.1691 9.11688C24.771 9.10733 24.3761 9.19033 24.0155 9.35935C23.6549 9.52837 23.3385 9.7788 23.0912 10.0909C22.5385 10.7868 22.2529 11.6574 22.286 12.5455C22.2499 13.426 22.5362 14.2894 23.0912 14.974C23.3424 15.2799 23.6602 15.5244 24.0204 15.6887C24.3805 15.853 24.7734 15.9328 25.1691 15.9221ZM41.0133 19.2208H36.9613L33.3769 5.81818H37.3509L39.2211 13.8182L41.4808 5.81818H44.9353L47.1691 13.7922L49.0089 5.81818H52.8791L49.325 19.2208H45.3206L43.1431 11.3203L41.0133 19.2208ZM54.0782 12.5455C54.0699 11.6013 54.2509 10.6651 54.6107 9.79221C54.9494 8.96946 55.4499 8.2231 56.0825 7.5974C56.7211 6.97269 57.4755 6.47861 58.3033 6.14286C59.181 5.78386 60.1213 5.60287 61.0695 5.61039C62.0219 5.60363 62.9663 5.78457 63.8488 6.14286C64.6816 6.47634 65.4407 6.9706 66.0825 7.5974C66.7136 8.2235 67.2126 8.96983 67.5501 9.79221C67.9098 10.6651 68.0909 11.6013 68.0825 12.5455C68.0922 13.4905 67.908 14.4276 67.5414 15.2987C67.193 16.1192 66.687 16.8634 66.0522 17.4892C65.414 18.1154 64.6596 18.611 63.8315 18.9481C62.9524 19.3076 62.0106 19.4886 61.0609 19.4805C60.1126 19.488 59.1724 19.307 58.2947 18.9481C57.4675 18.6099 56.7157 18.1111 56.0825 17.4805C55.4531 16.8481 54.9544 16.0979 54.615 15.2727C54.2554 14.4087 54.0729 13.4813 54.0782 12.5455ZM61.0609 15.9221C61.4583 15.9318 61.8528 15.8516 62.2149 15.6874C62.5769 15.5232 62.8972 15.2794 63.1518 14.974C63.7145 14.293 64.0058 13.4281 63.97 12.5455C64.0029 11.6553 63.7122 10.7833 63.1518 10.0909C62.9012 9.77917 62.5824 9.52919 62.2198 9.3603C61.8573 9.19142 61.4607 9.10813 61.0609 9.11688C60.6628 9.10733 60.2679 9.19033 59.9073 9.35935C59.5467 9.52837 59.2303 9.7788 58.983 10.0909C58.4303 10.7868 58.1447 11.6574 58.1778 12.5455C58.1417 13.426 58.428 14.2894 58.983 14.974C59.2342 15.2799 59.552 15.5244 59.9121 15.6887C60.2723 15.853 60.6652 15.9328 61.0609 15.9221ZM70.7535 19.2208V5.81818H74.9613V8.85714C75.2825 7.92417 75.8109 7.07609 76.5068 6.37662C77.0718 5.84382 77.8212 5.55058 78.5977 5.55844C78.8421 5.56931 79.0854 5.59971 79.325 5.64935C79.558 5.70795 79.7843 5.79065 80.0003 5.8961V9.50649C79.7088 9.37474 79.404 9.27461 79.0912 9.20779C78.7416 9.12952 78.3845 9.09031 78.0263 9.09091C77.4124 9.08842 76.8083 9.24503 76.273 9.54545C75.7431 9.8341 75.2926 10.2489 74.9613 10.7532V19.2208H70.7535ZM82.2341 19.2208V0.649351L86.4418 0V11.1472L91.1172 5.82251H95.7709L90.312 11.8182L96.1561 19.2208H90.9094L86.4418 13.2987V19.2208H82.2341ZM109.113 17.3247C108.345 18.026 107.458 18.5845 106.494 18.974C105.53 19.3253 104.511 19.4969 103.485 19.4805C102.535 19.4886 101.594 19.3076 100.715 18.9481C99.8787 18.607 99.116 18.1088 98.4678 17.4805C97.8237 16.8522 97.3116 16.1016 96.9613 15.2727C96.5964 14.4102 96.4122 13.482 96.4202 12.5455C96.4118 11.6026 96.5883 10.6672 96.9397 9.79221C97.2671 8.97309 97.7475 8.22381 98.3553 7.58442C98.9622 6.95447 99.6914 6.45509 100.498 6.11688C101.344 5.75888 102.255 5.57768 103.173 5.58442C104.088 5.57336 104.995 5.75477 105.836 6.11688C106.622 6.4583 107.329 6.95784 107.914 7.58442C108.511 8.23655 108.975 8.99999 109.277 9.83117C109.614 10.7501 109.781 11.7226 109.771 12.7013V13.6104H100.55C100.719 14.3263 101.12 14.9667 101.689 15.4329C102.251 15.8971 102.96 16.1458 103.689 16.1342C104.208 16.14 104.723 16.0429 105.204 15.8485C105.645 15.6712 106.033 15.3853 106.334 15.0173L109.113 17.3247ZM103.139 8.85714C102.526 8.84171 101.932 9.06527 101.481 9.48052C101 9.95221 100.674 10.5592 100.546 11.2208H105.866C105.729 10.5534 105.384 9.94693 104.879 9.48918C104.4 9.06928 103.78 8.84384 103.143 8.85714H103.139ZM112.39 19.2208V5.81818H116.598V8.85714C116.919 7.92417 117.447 7.07609 118.143 6.37662C118.708 5.84382 119.458 5.55058 120.234 5.55844C120.479 5.56931 120.722 5.59971 120.961 5.64935C121.194 5.70795 121.421 5.79065 121.637 5.8961V9.50649C121.345 9.37474 121.04 9.27461 120.728 9.20779C120.378 9.12952 120.021 9.09031 119.663 9.09091C119.049 9.08842 118.445 9.24503 117.909 9.54545C117.38 9.8341 116.929 10.2489 116.598 10.7532V19.2208H112.39ZM124 19.2208V1.03896H128.468V8.1039H135.818V1.03896H140.282V19.2208H135.814V12.026H128.463V19.2208H124ZM162 10.1299C162.008 11.354 161.774 12.5677 161.312 13.7013C160.874 14.7854 160.235 15.7769 159.429 16.6234L161.013 18.5195L157.814 20.7013L156.234 18.8052C155.676 19.0366 155.096 19.2106 154.502 19.3247C153.882 19.4464 153.251 19.5073 152.619 19.5065C151.349 19.5156 150.09 19.2682 148.918 18.7792C147.802 18.3182 146.787 17.6431 145.931 16.7922C145.082 15.9367 144.409 14.9234 143.948 13.8095C143.46 12.6445 143.213 11.3929 143.221 10.1299C143.213 8.86685 143.46 7.61524 143.948 6.45022C144.409 5.3344 145.084 4.31964 145.935 3.4632C146.792 2.61228 147.807 1.93725 148.922 1.47619C150.095 0.987212 151.354 0.739849 152.624 0.748917C153.89 0.739001 155.144 0.986432 156.312 1.47619C157.423 1.93954 158.433 2.61439 159.286 3.4632C160.138 4.31926 160.815 5.33404 161.277 6.45022C161.764 7.61555 162.01 8.86714 162 10.1299ZM155.091 11.4026L156.572 13.1948C156.835 12.7528 157.036 12.2764 157.169 11.7792C157.313 11.2413 157.384 10.6866 157.381 10.1299C157.387 9.39978 157.264 8.67444 157.018 7.98701C156.797 7.35703 156.457 6.77513 156.018 6.27273C155.595 5.79702 155.079 5.41256 154.502 5.14286C153.909 4.86481 153.261 4.72283 152.606 4.72727C151.951 4.72283 151.303 4.86481 150.71 5.14286C150.134 5.41256 149.618 5.79702 149.195 6.27273C148.751 6.77405 148.407 7.35601 148.182 7.98701C147.936 8.67444 147.813 9.39978 147.818 10.1299C147.813 10.86 147.936 11.5853 148.182 12.2727C148.403 12.9027 148.742 13.4846 149.182 13.987C149.605 14.4627 150.121 14.8472 150.697 15.1169C151.29 15.3949 151.938 15.5369 152.593 15.5325C152.738 15.5324 152.883 15.5237 153.026 15.5065L153.459 15.4545L151.901 13.5844L155.091 11.4026Z" fill="black"/>
</g>
<defs>
<clipPath id="clip0">
<rect width="162" height="20.7013" fill="white"/>
</clipPath>
</defs>
</svg>
