<svg xmlns="http://www.w3.org/2000/svg" class="site-logo-light" viewBox="0 0 117 40">
    <defs>
        <style>
        </style>
    </defs>
    <g transform="translate(-140 -30)">
        <path d="M117.527,36.986V28.263a.6.6,0,0,0-.488-.13h-7.1c-.482,0-.56.065-.736.521-.273.71-.5,1.432-.781,2.135a1.01,1.01,0,0,1-.95.723c-1.836.013-3.665.02-5.5,0a.95.95,0,0,1-.983-.963c-.013-.176-.007-.345-.007-.521V4.2a7.491,7.491,0,0,0-.2-1.706A2.957,2.957,0,0,0,98.075.133a.991.991,0,0,1-.41-.052H90.829v.15A2.4,2.4,0,0,0,90.8.816V30.834a1.262,1.262,0,0,1-.072.579c-.039.091-.117.111-.208.124a1.088,1.088,0,0,1-1.185-.612,13.038,13.038,0,0,1-.625-1.608q-1.572-4.394-3.157-8.782-1.426-3.984-2.858-7.955c-.957-2.663-1.907-5.325-2.871-7.988a1.327,1.327,0,0,0-.579-.71Q76.673,2.291,74.1.693A3.652,3.652,0,0,0,72.927.087a2.627,2.627,0,0,0-.326,0c-.046.124-.176.15-.273.208-1.907,1.12-3.808,2.239-5.722,3.346a.8.8,0,0,0-.384.456c-.3.879-.612,1.758-.918,2.637-.1.293-.2.579-.312.892a.668.668,0,0,0,.358-.137q3.5-1.836,6.985-3.678c.1-.052.215-.091.326-.143,0-.02,2.493,1.478,3.548,2.077a1.156,1.156,0,0,1,.547.605c.514,1.25,1.048,2.493,1.575,3.743.02.052.078.1.033.169-.833-.345-1.654-.716-2.48-1.068C74.951,8.8,74.04,8.388,73.109,8c-.15-.065-.319-.189-.456.026q-4.57,2.119-9.133,4.225a.66.66,0,0,0-.391.43c-.456,1.3-.931,2.584-1.387,3.88-.033.091-.124.182-.039.306q5.478-2.344,10.956-4.674c.072.046,4.251,1.5,6.276,2.155a.881.881,0,0,1,.605.566q.684,1.8,1.38,3.58a1.075,1.075,0,0,1,.111.345c-1.627-.488-3.235-.983-4.843-1.458-.977-.293-1.953-.592-2.929-.885-.2-.059-.417-.163-.6.059a1.144,1.144,0,0,1-.28.13Q66.316,19,60.245,21.3a.536.536,0,0,0-.339.352c-.449,1.263-.9,2.526-1.354,3.789-.026.085-.111.169-.052.267.124.039.221-.033.319-.065q4.306-1.5,8.606-3.014,2.617-.918,5.234-1.849a.623.623,0,0,0,.423.215c.918.221,1.829.462,2.747.684,2.07.495,4.127,1.029,6.2,1.517a.645.645,0,0,1,.521.423c.5,1.4,1.016,2.793,1.517,4.192.033.091.111.2.046.28s-.182.013-.273-.007q-3.662-.791-7.311-1.595c-1.126-.247-2.246-.488-3.372-.729a3.794,3.794,0,0,0-1.074.111c-1.673.579-3.346,1.139-5.026,1.706-3.053,1.029-6.1,2.083-9.153,3.1-.566.189-1.133.378-1.686.6a3.173,3.173,0,0,1-1.172.221c-3.548-.007-7.1,0-10.644,0a2.951,2.951,0,0,1-.586-.033.911.911,0,0,1-.775-.775,2.119,2.119,0,0,1-.033-.456V24.962c0-.6.1-.69.71-.7h9.83c.853,0,.853,0,.853-.84V16.362c0-.814,0-.82-.807-.82H43.729c-.631,0-.723-.091-.723-.71V9.462c0-.755.065-.82.814-.82H57.492c.2,0,.391.007.586-.007.41-.02.488-.078.482-.482-.02-1.354.085-2.708.065-4.062a5.55,5.55,0,0,0-.306-1.953,2.78,2.78,0,0,0-2.558-2,1.669,1.669,0,0,1-.475-.059H32.825V.218a1.941,1.941,0,0,0-.033.521V29.916a8.168,8.168,0,0,1-.176,1.38c-.085.182-.247.189-.417.189-.931,0-1.868.02-2.8-.007a2.239,2.239,0,0,1-2.057-1.243c-.71-1.354-1.432-2.7-2.122-4.062A6.8,6.8,0,0,0,22.982,23.4c-.365-.241-.352-.325.026-.56a10.83,10.83,0,0,0,4.733-6.256,14.889,14.889,0,0,0,.2-7.239,11.378,11.378,0,0,0-3.118-5.859,11.259,11.259,0,0,0-3.646-2.4,11.2,11.2,0,0,0-3.3-.9C17.364.133,16.85.139,16.335.074h-.911Q7.759.074.093.081C0,.081-.128,0-.2.139V.2l.02.039c.02-.02.02-.033.007-.039V8.342l.02-.039-.02.039V34.356q0,2.715.007,5.429c0,.085-.072.2.059.26H9.917c0-.039-.007-.078-.007-.117a.416.416,0,0,0,.039-.143c.007-.117.007-.241.007-.358V28.243a7.5,7.5,0,0,1,.169-1.315c.078-.169.221-.189.384-.189a18.4,18.4,0,0,1,2.077.072A2.517,2.517,0,0,1,14.7,28.217c.325.638.664,1.269,1,1.9,1.178,2.272,2.383,4.531,3.548,6.809a8.967,8.967,0,0,0,.736,1.224,4.035,4.035,0,0,0,3,1.823,3.974,3.974,0,0,1,.736.078H63.1q4.668,0,9.342.007c.156,0,.215-.026.228-.137v.13h41.664c1,0,2-.007,2.995.007.163,0,.2-.039.2-.2C117.527,38.893,117.527,37.936,117.527,36.986ZM72.666.309V.3h0ZM17.65,15.223a3.838,3.838,0,0,1-3.8,2.936c-1.237.046-2.474.007-3.711.026C9.845,18.192,9.9,18,9.9,17.84V9.312c0-.208.013-.41,0-.618-.013-.189.065-.241.247-.241.664.007,1.322.007,2.116.007a19.786,19.786,0,0,1,2.109.052,3.661,3.661,0,0,1,3.32,2.975A7.415,7.415,0,0,1,17.65,15.223Z" transform="translate(140.2 29.941)" style="fill:#fff"/>
    </g>
</svg>
