<svg width="162" height="30" viewBox="0 0 162 30" fill="none" xmlns="http://www.w3.org/2000/svg">
<path d="M4.32989 0C5.26383 0.509422 6.19781 1.06134 7.13175 1.57076C10.6978 3.56604 14.2638 5.60378 17.8299 7.59906C17.9997 7.68396 18.127 7.68396 18.2968 7.59906C20.6317 6.24055 22.9242 4.83964 25.2591 3.48114C25.344 3.43869 25.4289 3.39624 25.5138 3.31133C25.5138 3.43869 25.5138 3.52359 25.5138 3.60849C25.5138 4.79719 25.5138 5.98584 25.5138 7.17454C25.5138 7.34434 25.4714 7.42925 25.3016 7.5566C22.712 9.04246 20.1223 10.5283 17.5752 12.0566C17.4054 12.1415 17.3205 12.1415 17.1507 12.0566C11.6318 8.83016 6.07046 5.60377 0.509134 2.37735C0.466682 2.33489 0.381779 2.29244 0.296875 2.24999C0.381779 2.20754 0.466682 2.12264 0.551586 2.08018C1.69783 1.44341 2.80158 0.806584 3.94782 0.212259C4.03272 0.169807 4.11763 0.0849037 4.20253 0.0424519C4.28744 1.3951e-07 4.28744 0 4.32989 0Z" fill="white"/>
<path d="M0.296921 10.9952C1.18841 10.4858 1.99504 9.97631 2.84407 9.46689C3.18369 9.29708 3.48085 9.08482 3.82051 8.87256C3.99032 8.78766 4.07522 8.78766 4.24503 8.87256C8.4903 11.2499 12.7356 13.5848 16.9809 15.9622C17.2781 16.132 17.4903 16.132 17.7875 15.9622C20.5893 14.3914 23.4337 12.8631 26.2356 11.2924C26.3205 11.25 26.4054 11.2075 26.4903 11.1651C26.4903 11.25 26.4903 11.3349 26.4903 11.3773C26.4903 12.6085 26.4903 13.7971 26.4903 15.0283C26.4903 15.1981 26.4478 15.283 26.278 15.3679C23.3488 17.066 20.462 18.7641 17.5327 20.4622C17.4054 20.5471 17.278 20.5471 17.1082 20.4622C11.5469 17.3207 6.02801 14.1792 0.466682 11.0801C0.466682 11.0801 0.42423 11.0377 0.296875 10.9952L0.296921 10.9952Z" fill="white"/>
<path d="M0 19.783C0.0849036 19.7405 0.169807 19.6981 0.254711 19.6556C1.44341 19.1037 2.63206 18.5518 3.82075 18C3.99056 17.9151 4.11792 17.9151 4.28772 18C8.57545 20.2924 12.8632 22.5848 17.1509 24.8773C17.3207 24.9622 17.4481 24.9622 17.6179 24.8773C20.8019 23.0943 24.0283 21.3113 27.2122 19.5283C27.2971 19.4858 27.4245 19.4434 27.5094 19.3585C27.5094 19.4434 27.5094 19.5283 27.5094 19.5707C27.5094 20.6745 27.5094 21.7783 27.5094 22.8821C27.5094 23.0519 27.467 23.1368 27.3396 23.2217C24.0707 25.132 20.8019 27.0424 17.533 28.9528C17.4056 29.0377 17.3207 29.0377 17.1509 28.9528C11.5047 25.9386 5.81603 22.8821 0.169807 19.8679C0.127356 19.8679 0.0849036 19.8254 0 19.783Z" fill="white"/>
<path d="M46.4854 2.5045C48.0986 2.5045 49.7118 2.54695 51.325 2.54695C51.5373 2.54695 51.7495 2.54695 52.0467 2.54695C52.0467 9.08467 52.0467 15.58 52.0467 22.1177C56.292 22.1177 60.4523 22.1177 64.6552 22.1177C64.6552 23.7734 64.6552 25.3866 64.6552 27.0422C64.4429 27.0422 64.2307 27.0422 64.0609 27.0422C58.4146 27.0422 52.8109 27.0422 47.1646 27.0422C46.9524 27.0422 46.7401 27.0847 46.5279 27.0847C46.4854 18.8489 46.4854 10.6554 46.4854 2.5045H46.4854Z" fill="white"/>
<path d="M87.9623 2.12294C91.1039 2.2503 93.8633 3.39654 96.2406 5.43427C97.8963 6.83523 99.0425 8.5758 99.7217 10.5711C100.019 11.4626 100.146 12.439 100.316 13.4154C100.613 15.2834 100.359 17.1513 99.7217 18.8919C99.1274 20.5051 98.2359 21.9485 97.0472 23.222C95.5189 24.8777 93.651 25.9814 91.5284 26.7032C89.6604 27.3399 87.7076 27.5098 85.7548 27.3824C82.8255 27.1701 80.1086 26.1513 77.8586 24.2833C75.6935 22.4579 74.2501 20.123 73.7407 17.3211C73.1888 14.4342 73.5284 11.5899 74.9294 8.95786C76.4152 6.2409 78.5803 4.28807 81.4671 3.14183C82.9529 2.5475 84.5237 2.16539 86.1369 2.12294C86.2218 2.12294 87.835 2.12294 87.9623 2.12294ZM86.9859 22.373C91.4434 22.5003 94.5849 18.9767 94.5849 14.8163C94.5849 10.2739 91.2736 7.13239 86.9859 7.04749C82.4859 6.96258 79.4293 10.4013 79.3444 14.5616C79.2595 19.0192 82.8255 22.5003 86.9859 22.373Z" fill="white"/>
<path d="M128.717 12.6083C128.717 14.3064 128.717 15.8772 128.717 17.5328C124.726 17.5328 120.778 17.5328 116.745 17.5328C116.745 20.7168 116.745 23.8583 116.745 26.9998C114.835 26.9998 113.01 26.9998 111.142 26.9998C111.142 18.8913 111.142 10.7403 111.142 2.58942C117.51 2.58942 123.92 2.58942 130.33 2.58942C130.33 4.20263 130.33 5.77339 130.33 7.42906C125.83 7.42906 121.33 7.42906 116.745 7.42906C116.745 9.16963 116.745 10.8677 116.745 12.6083C120.736 12.6083 124.726 12.6083 128.717 12.6083V12.6083Z" fill="white"/>
<path d="M162 7.47184C160.939 7.47184 159.878 7.42938 158.859 7.42938C157.5 7.42938 156.184 7.42938 154.826 7.42938C154.656 7.42938 154.444 7.42938 154.232 7.42938C154.232 13.9671 154.232 20.4624 154.232 26.9577C152.364 26.9577 150.581 26.9577 148.713 26.9577C148.713 20.4624 148.713 13.9671 148.713 7.42938C146.123 7.42938 143.576 7.42938 140.986 7.42938C140.986 5.77372 140.986 4.1605 140.986 2.50484C141.199 2.50484 141.411 2.50484 141.623 2.50484C148.203 2.50484 154.783 2.50484 161.321 2.50484C161.533 2.50484 161.746 2.46239 161.958 2.46239C162 4.1605 162 5.81617 162 7.47184H162Z" fill="white"/>
</svg>
